# This file uses centimeters as units for non-parametric coordinates.

mtllib Book.mtl
g default
v -7.692548 -5.124775 0.967672
v 7.692550 -5.124775 0.967672
v -7.692548 -5.124775 4.517523
v 7.692550 -5.124775 4.517523
v -7.692548 15.475766 4.517523
v 7.692550 15.475766 4.517523
v -7.692548 15.475766 0.967672
v 7.692550 15.475766 0.967672
v 7.332029 -5.124775 4.052613
v -7.692548 -5.124775 4.052613
v -7.692548 15.475766 4.052613
v 7.332029 15.475766 4.052613
v 7.332029 -5.124775 1.364535
v -7.692548 -5.124775 1.364535
v -7.692548 15.475766 1.364535
v 7.332029 15.475766 1.364535
v 7.332029 -5.124775 1.364535
v -7.692550 -5.124775 1.364535
v 7.332029 -5.124775 4.052613
v -7.692550 -5.124775 4.052613
v -7.298254 -5.124775 4.517523
v -7.298254 15.475766 4.517523
v -7.307494 15.475766 4.052613
v -7.307494 15.475766 1.364535
v -7.298254 15.475766 0.967672
v -7.298254 -5.124775 0.967672
v -7.307494 -5.124775 1.364535
v -7.307494 -5.124775 1.364535
v -7.307494 -5.124775 4.052613
v -7.307494 -5.124775 4.052613
vt 0.375000 0.000000
vt 0.625000 0.000000
vt 0.375000 0.250000
vt 0.625000 0.250000
vt 0.375000 0.500000
vt 0.625000 0.500000
vt 0.375000 0.750000
vt 0.625000 0.750000
vt 0.375000 1.000000
vt 0.625000 1.000000
vt 0.875000 0.000000
vt 0.875000 0.250000
vt 0.125000 0.000000
vt 0.125000 0.250000
vt 0.625000 0.217258
vt 0.375000 0.217258
vt 0.125000 0.217258
vt 0.375000 0.532742
vt 0.625000 0.532742
vt 0.875000 0.217258
vt 0.625000 0.027949
vt 0.375000 0.027949
vt 0.125000 0.027949
vt 0.375000 0.722051
vt 0.625000 0.722051
vt 0.875000 0.027949
vt 0.375000 0.027949
vt 0.625000 0.027949
vt 0.625000 0.217258
vt 0.375000 0.217258
vt 0.381407 0.250000
vt 0.381407 0.500000
vt 0.381407 0.532742
vt 0.381407 0.722051
vt 0.381407 0.750000
vt 0.381407 0.000000
vt 0.381407 1.000000
vt 0.381407 0.027949
vt 0.381407 0.027949
vt 0.381407 0.217258
vt 0.381407 0.217258
vn 0.000000 -1.000000 0.000000
vn 0.000000 -1.000000 0.000000
vn 0.000000 -1.000000 0.000000
vn 0.000000 -1.000000 0.000000
vn 0.000000 0.000000 1.000000
vn 0.000000 0.000000 1.000000
vn 0.000000 0.000000 1.000000
vn 0.000000 0.000000 1.000000
vn 0.000000 1.000000 -0.000000
vn 0.000000 1.000000 -0.000000
vn 0.000000 1.000000 -0.000000
vn 0.000000 1.000000 -0.000000
vn 0.000000 -0.000000 -1.000000
vn 0.000000 -0.000000 -1.000000
vn 0.000000 -0.000000 -1.000000
vn 0.000000 -0.000000 -1.000000
vn 0.740185 0.000000 0.672404
vn 0.740185 0.000000 0.672404
vn 0.993240 0.000000 0.116075
vn 0.993240 0.000000 0.116075
vn -1.000000 0.000000 0.000000
vn -1.000000 0.000000 0.000000
vn -1.000000 0.000000 0.000000
vn -1.000000 0.000000 0.000000
vn 0.000000 -1.000000 0.000000
vn 0.000000 -1.000000 0.000000
vn 0.000000 -1.000000 0.000000
vn 0.000000 -1.000000 0.000000
vn -1.000000 0.000000 0.000000
vn -1.000000 0.000000 0.000000
vn -1.000000 0.000000 0.000000
vn -1.000000 0.000000 0.000000
vn 0.000000 1.000000 -0.000000
vn 0.000000 1.000000 -0.000000
vn 0.000000 1.000000 -0.000000
vn 0.000000 1.000000 -0.000000
vn 0.993526 -0.000000 -0.113602
vn 0.993526 -0.000000 -0.113602
vn 0.790238 -0.000000 -0.612800
vn 0.790238 -0.000000 -0.612800
vn 0.000000 -1.000000 0.000000
vn 0.000000 -1.000000 0.000000
vn 0.000000 -1.000000 0.000000
vn 0.000000 -1.000000 0.000000
vn 0.000000 -1.000000 0.000000
vn 0.000000 -0.000000 0.000000
vn 0.000000 -0.000000 0.000000
vn 0.000000 -0.000000 0.000000
vn 0.000000 0.000000 0.000000
vn 0.000000 0.000000 0.000000
vn 0.000000 0.000000 0.000000
vn 0.000000 0.000000 0.000000
vn 0.000000 0.000000 0.000000
vn 0.000000 0.000000 0.000000
vn 0.000000 0.000000 0.000000
vn 0.000000 0.000000 0.000000
vn 0.000000 1.000000 -0.000000
vn 0.000000 1.000000 -0.000000
vn 0.000000 1.000000 -0.000000
vn 0.000000 1.000000 -0.000000
vn 0.000000 0.000000 1.000000
vn 0.000000 0.000000 1.000000
vn 0.000000 1.000000 -0.000000
vn 0.000000 1.000000 -0.000000
vn 0.000000 1.000000 -0.000000
vn 0.000000 1.000000 -0.000000
vn 0.000000 -0.000000 -1.000000
vn 0.000000 -0.000000 -1.000000
vn 0.000000 -1.000000 0.000000
vn 0.000000 -1.000000 0.000000
vn 0.000000 0.000000 0.000000
vn 0.000000 0.000000 0.000000
vn 0.000000 0.000000 0.000000
vn 0.000000 0.000000 0.000000
vn 0.000000 -1.000000 0.000000
vn 0.000000 -1.000000 0.000000
vn 0.000000 0.000000 0.000000
vn 0.000000 0.000000 0.000000
vn 0.000000 0.000000 0.000000
vn 0.000000 0.000000 0.000000
vn 0.000000 -1.000000 0.000000
vn 0.000000 -1.000000 0.000000
s 1
g pCube1
usemtl initialShadingGroup
f 1/1/1 26/36/2 27/38/3 14/22/4
s 2
f 3/3/5 21/31/6 22/32/7 5/5/8
s 3
f 15/24/9 24/34/10 25/35/11 7/7/12
s 4
f 7/7/13 25/35/14 26/37/15 1/9/16
s 5
f 2/2/17 8/11/18 16/26/19 13/21/20
s 6
f 7/13/21 1/1/22 14/22/23 15/23/24
s 7
f 10/16/25 30/41/26 21/31/27 3/3/28
s 6
f 11/17/29 10/16/30 3/3/31 5/14/32
s 3
f 5/5/33 22/32/34 23/33/35 11/18/36
s 5
f 9/15/37 12/20/38 6/12/39 4/4/40
s 9
f 18/27/41 28/39/42 29/40/43 20/30/44
s 6
f 15/23/24 14/22/23 10/16/30 11/17/29
s 3
f 11/18/36 23/33/35 24/34/10 15/24/9
s 5
f 13/21/20 16/26/19 12/20/38 9/15/37
s off
f 14/22/45 27/38/46 28/39/47 18/27/48
f 13/21/49 9/15/50 19/29/51 17/28/52
f 30/41/53 10/16/54 20/30/55 29/40/56
f 10/16/57 14/22/58 18/27/59 20/30/60
s 2
f 21/31/6 4/4/61 6/6/62 22/32/7
s 3
f 23/33/35 22/32/34 6/6/63 12/19/64
f 24/34/10 23/33/35 12/19/64 16/25/65
f 25/35/11 24/34/10 16/25/65 8/8/66
s 4
f 26/37/15 25/35/14 8/8/67 2/10/68
s 1
f 27/38/3 26/36/2 2/2/69 13/21/70
s off
f 28/39/71 27/38/72 13/21/73 17/28/74
s 9
f 29/40/43 28/39/42 17/28/75 19/29/76
s off
f 9/15/77 30/41/78 29/40/79 19/29/80
s 7
f 21/31/27 30/41/26 9/15/81 4/4/82
