# This file uses centimeters as units for non-parametric coordinates.

mtllib Chemical_Container.mtl
g default
v -39.340527 21.159677 39.632156
v 11.232228 21.159677 39.632156
v -39.340527 23.681071 39.632156
v 11.232228 23.681071 39.632156
v -39.340527 23.681071 -39.632156
v 11.232228 23.681071 -39.632156
v -39.340527 21.159677 -39.632156
v 11.232228 21.159677 -39.632156
v -34.266938 12.541236 32.070425
v 6.158639 12.541236 32.070425
v 6.158639 12.541236 -32.070428
v -34.266938 12.541236 -32.070428
v -34.499480 10.096973 -32.044627
v 6.391181 10.096973 -32.044627
v 6.391181 10.096973 32.044627
v -34.499480 10.096973 32.044627
vt 0.375000 0.000000
vt 0.625000 0.000000
vt 0.375000 0.250000
vt 0.625000 0.250000
vt 0.375000 0.500000
vt 0.625000 0.500000
vt 0.375000 0.750000
vt 0.625000 0.750000
vt 0.375000 1.000000
vt 0.625000 1.000000
vt 0.875000 0.000000
vt 0.875000 0.250000
vt 0.125000 0.000000
vt 0.125000 0.250000
vt 0.375000 0.250000
vt 0.625000 0.250000
vt 0.625000 0.500000
vt 0.375000 0.500000
vt 0.375000 0.750000
vt 0.625000 0.750000
vt 0.625000 1.000000
vt 0.375000 1.000000
vn 0.000000 0.000000 1.000000
vn 0.000000 0.000000 1.000000
vn 0.000000 0.000000 1.000000
vn 0.000000 0.000000 1.000000
vn 0.000000 1.000000 0.000000
vn 0.000000 1.000000 0.000000
vn 0.000000 1.000000 0.000000
vn 0.000000 1.000000 0.000000
vn 0.000000 0.000000 -1.000000
vn 0.000000 0.000000 -1.000000
vn 0.000000 0.000000 -1.000000
vn 0.000000 0.000000 -1.000000
vn 0.000000 -1.000000 0.000000
vn 0.000000 -1.000000 0.000000
vn 0.000000 -1.000000 0.000000
vn 0.000000 -1.000000 0.000000
vn 1.000000 0.000000 0.000000
vn 1.000000 0.000000 0.000000
vn 1.000000 0.000000 0.000000
vn 1.000000 0.000000 0.000000
vn -1.000000 0.000000 0.000000
vn -1.000000 0.000000 0.000000
vn -1.000000 0.000000 0.000000
vn -1.000000 0.000000 0.000000
vn 0.000000 0.561632 -0.827388
vn 0.000000 0.561632 -0.827388
vn 0.000000 0.561632 -0.827388
vn 0.000000 0.561632 -0.827388
vn -0.910058 0.414482 0.000000
vn -0.910058 0.414482 0.000000
vn -0.910058 0.414482 0.000000
vn -0.910058 0.414482 0.000000
vn 0.000000 0.561631 0.827388
vn 0.000000 0.561631 0.827388
vn 0.000000 0.561631 0.827388
vn 0.000000 0.561631 0.827388
vn 0.910058 0.414482 0.000000
vn 0.910058 0.414482 0.000000
vn 0.910058 0.414482 0.000000
vn 0.910058 0.414482 0.000000
vn 0.000000 -0.565613 -0.824671
vn 0.000000 -0.565613 -0.824671
vn 0.000000 -0.565613 -0.824671
vn 0.000000 -0.565613 -0.824671
vn 0.916123 -0.400896 0.000000
vn 0.916123 -0.400896 0.000000
vn 0.916123 -0.400896 0.000000
vn 0.916123 -0.400896 0.000000
vn 0.000000 -0.565613 0.824671
vn 0.000000 -0.565613 0.824671
vn 0.000000 -0.565613 0.824671
vn 0.000000 -0.565613 0.824671
vn -0.916123 -0.400896 0.000000
vn -0.916123 -0.400896 0.000000
vn -0.916123 -0.400896 0.000000
vn -0.916123 -0.400896 0.000000
s off
g pCube8
usemtl initialShadingGroup
f 1/1/1 2/2/2 4/4/3 3/3/4
f 9/15/5 10/16/6 11/17/7 12/18/8
f 5/5/9 6/6/10 8/8/11 7/7/12
f 13/19/13 14/20/14 15/21/15 16/22/16
f 2/2/17 8/11/18 6/12/19 4/4/20
f 7/13/21 1/1/22 3/3/23 5/14/24
f 3/3/25 4/4/26 10/16/27 9/15/28
f 4/4/29 6/6/30 11/17/31 10/16/32
f 6/6/33 5/5/34 12/18/35 11/17/36
f 5/5/37 3/3/38 9/15/39 12/18/40
f 7/7/41 8/8/42 14/20/43 13/19/44
f 8/8/45 2/10/46 15/21/47 14/20/48
f 2/10/49 1/9/50 16/22/51 15/21/52
f 1/9/53 7/7/54 13/19/55 16/22/56
