# This file uses centimeters as units for non-parametric coordinates.

mtllib Light_Switch.mtl
g default
v -139.627676 69.884644 0.542330
v -126.604533 69.884644 0.542330
v -139.627676 89.408529 0.542330
v -126.604533 89.408529 0.542330
v -139.627676 89.408529 -0.542330
v -126.604533 89.408529 -0.542330
v -139.627676 69.884644 -0.542330
v -126.604533 69.884644 -0.542330
v -126.604533 69.884644 -0.180777
v -126.604533 69.884644 0.180777
v -139.627676 69.884644 -0.180777
v -139.627676 69.884644 0.180777
v -126.604533 84.730863 -0.542330
v -126.604533 74.987205 -0.542330
v -139.627676 84.730863 -0.542330
v -139.627676 74.987205 -0.542330
v -126.604533 89.408529 0.180777
v -126.604533 89.408529 -0.180777
v -139.627676 89.408529 0.180777
v -139.627676 89.408529 -0.180777
v -126.604533 74.987214 0.542330
v -126.604533 84.730863 0.542330
v -139.627676 74.987214 0.542330
v -139.627676 84.730863 0.542330
v -135.286620 69.884644 -0.542330
v -130.945589 69.884644 -0.542330
v -135.286620 89.408529 -0.542330
v -130.945589 89.408529 -0.542330
v -135.286620 89.408529 0.542330
v -130.945589 89.408529 0.542330
v -135.286620 69.884644 0.542330
v -130.945589 69.884644 0.542330
v -139.627676 74.987214 0.180777
v -139.627676 84.730863 0.180777
v -139.627676 74.987214 -0.180777
v -139.627676 84.730863 -0.180777
v -126.604533 74.987214 -0.180777
v -126.604533 84.730863 -0.180777
v -126.604533 74.987214 0.180777
v -126.604533 84.730863 0.180777
v -130.945589 69.884644 -0.180777
v -130.945589 69.884644 0.180777
v -135.286620 69.884644 -0.180777
v -135.286620 69.884644 0.180777
v -130.945589 84.730863 -0.542330
v -130.945589 74.987205 -0.542330
v -135.286620 84.730863 -0.542330
v -135.286620 74.987205 -0.542330
v -130.945589 89.408529 0.180777
v -130.945589 89.408529 -0.180777
v -135.286620 89.408529 0.180777
v -135.286620 89.408529 -0.180777
v -130.945589 74.987214 0.542330
v -130.945589 84.730863 0.542330
v -135.286620 74.987214 0.542330
v -135.286620 84.730863 0.542330
v -135.286620 84.730863 1.096149
v -130.945589 84.730863 1.096149
v -135.286620 76.986206 2.028235
v -130.945589 76.986206 2.028235
vt 0.375000 0.000000
vt 0.625000 0.000000
vt 0.375000 0.250000
vt 0.625000 0.250000
vt 0.375000 0.500000
vt 0.625000 0.500000
vt 0.375000 0.750000
vt 0.625000 0.750000
vt 0.375000 1.000000
vt 0.625000 1.000000
vt 0.875000 0.000000
vt 0.875000 0.250000
vt 0.125000 0.000000
vt 0.125000 0.250000
vt 0.625000 0.833333
vt 0.791667 0.000000
vt 0.625000 0.916667
vt 0.708333 0.000000
vt 0.208333 0.000000
vt 0.375000 0.833333
vt 0.291667 0.000000
vt 0.375000 0.916667
vt 0.625000 0.583333
vt 0.875000 0.166667
vt 0.625000 0.666667
vt 0.875000 0.083333
vt 0.125000 0.166667
vt 0.375000 0.583333
vt 0.125000 0.083333
vt 0.375000 0.666667
vt 0.625000 0.333333
vt 0.708333 0.250000
vt 0.625000 0.416667
vt 0.791667 0.250000
vt 0.291667 0.250000
vt 0.375000 0.333333
vt 0.208333 0.250000
vt 0.375000 0.416667
vt 0.625000 0.083333
vt 0.625000 0.166667
vt 0.375000 0.083333
vt 0.375000 0.166667
vt 0.458333 0.750000
vt 0.541667 0.750000
vt 0.458333 0.500000
vt 0.541667 0.500000
vt 0.458333 0.250000
vt 0.541667 0.250000
vt 0.458333 0.000000
vt 0.458333 1.000000
vt 0.541667 0.000000
vt 0.541667 1.000000
vt 0.291667 0.083333
vt 0.291667 0.166667
vt 0.208333 0.083333
vt 0.208333 0.166667
vt 0.791667 0.083333
vt 0.791667 0.166667
vt 0.708333 0.083333
vt 0.708333 0.166667
vt 0.541667 0.833333
vt 0.541667 0.916667
vt 0.458333 0.833333
vt 0.458333 0.916667
vt 0.541667 0.583333
vt 0.541667 0.666667
vt 0.458333 0.583333
vt 0.458333 0.666667
vt 0.541667 0.333333
vt 0.541667 0.416667
vt 0.458333 0.333333
vt 0.458333 0.416667
vt 0.541667 0.083333
vt 0.541667 0.166667
vt 0.458333 0.083333
vt 0.458333 0.166667
vt 0.541667 0.166667
vt 0.458333 0.166667
vt 0.458333 0.083333
vt 0.541667 0.083333
vn 0.000000 0.000000 1.000000
vn 0.000000 0.000000 1.000000
vn 0.000000 0.000000 1.000000
vn 0.000000 0.000000 1.000000
vn 0.000000 1.000000 0.000000
vn 0.000000 1.000000 0.000000
vn 0.000000 1.000000 0.000000
vn 0.000000 1.000000 0.000000
vn 0.000000 0.000000 -1.000000
vn 0.000000 0.000000 -1.000000
vn 0.000000 0.000000 -1.000000
vn 0.000000 0.000000 -1.000000
vn 0.000000 -1.000000 0.000000
vn 0.000000 -1.000000 0.000000
vn 0.000000 -1.000000 0.000000
vn 0.000000 -1.000000 0.000000
vn 1.000000 0.000000 0.000000
vn 1.000000 0.000000 0.000000
vn 1.000000 0.000000 0.000000
vn 1.000000 0.000000 0.000000
vn -1.000000 0.000000 0.000000
vn -1.000000 -0.000000 0.000000
vn -1.000000 -0.000000 0.000000
vn -1.000000 0.000000 0.000000
vn -1.000000 -0.000000 0.000000
vn -1.000000 -0.000000 0.000000
vn -1.000000 -0.000000 0.000000
vn -1.000000 -0.000000 0.000000
vn -1.000000 0.000000 0.000000
vn -1.000000 -0.000000 0.000000
vn -1.000000 -0.000000 0.000000
vn -1.000000 0.000000 0.000000
vn -1.000000 0.000000 0.000000
vn -1.000000 -0.000000 0.000000
vn -1.000000 0.000000 0.000000
vn -1.000000 0.000000 0.000000
vn 1.000000 0.000000 0.000000
vn 1.000000 0.000000 0.000000
vn 1.000000 0.000000 0.000000
vn 1.000000 0.000000 0.000000
vn 1.000000 0.000000 0.000000
vn 1.000000 0.000000 0.000000
vn 1.000000 0.000000 0.000000
vn 1.000000 0.000000 0.000000
vn 1.000000 -0.000000 0.000000
vn 1.000000 -0.000000 0.000000
vn 1.000000 -0.000000 0.000000
vn 1.000000 -0.000000 0.000000
vn 0.000000 -1.000000 0.000000
vn 0.000000 -1.000000 0.000000
vn 0.000000 -1.000000 0.000000
vn 0.000000 -1.000000 0.000000
vn 0.000000 -1.000000 0.000000
vn 0.000000 -1.000000 0.000000
vn 0.000000 -1.000000 0.000000
vn 0.000000 -1.000000 0.000000
vn 0.000000 -1.000000 0.000000
vn 0.000000 -1.000000 0.000000
vn 0.000000 -1.000000 0.000000
vn 0.000000 -1.000000 0.000000
vn 0.000000 0.000000 -1.000000
vn 0.000000 0.000000 -1.000000
vn 0.000000 0.000000 -1.000000
vn 0.000000 0.000000 -1.000000
vn 0.000000 0.000000 -1.000000
vn 0.000000 0.000000 -1.000000
vn 0.000000 0.000000 -1.000000
vn 0.000000 0.000000 -1.000000
vn 0.000000 0.000000 -1.000000
vn 0.000000 0.000000 -1.000000
vn 0.000000 0.000000 -1.000000
vn 0.000000 0.000000 -1.000000
vn 0.000000 1.000000 0.000000
vn 0.000000 1.000000 0.000000
vn 0.000000 1.000000 0.000000
vn 0.000000 1.000000 0.000000
vn 0.000000 1.000000 0.000000
vn 0.000000 1.000000 0.000000
vn 0.000000 1.000000 0.000000
vn 0.000000 1.000000 0.000000
vn 0.000000 1.000000 0.000000
vn 0.000000 1.000000 0.000000
vn 0.000000 1.000000 0.000000
vn 0.000000 1.000000 0.000000
vn 0.000000 0.000000 1.000000
vn 0.000000 0.000000 1.000000
vn 0.000000 0.000000 1.000000
vn 0.000000 0.000000 1.000000
vn 0.000000 0.000000 1.000000
vn 0.000000 0.000000 1.000000
vn 0.000000 0.000000 1.000000
vn 0.000000 0.000000 1.000000
vn 0.000000 0.000000 1.000000
vn 0.000000 0.000000 1.000000
vn 0.000000 0.119490 0.992835
vn 0.000000 0.119490 0.992835
vn 0.000000 0.119490 0.992835
vn 0.000000 0.119490 0.992835
vn 0.000000 0.000000 1.000000
vn 0.000000 0.000000 1.000000
vn 0.000000 1.000000 0.000000
vn 0.000000 1.000000 0.000000
vn 0.000000 1.000000 0.000000
vn 0.000000 1.000000 0.000000
vn -1.000000 0.000000 0.000000
vn -1.000000 0.000000 0.000000
vn -1.000000 0.000000 0.000000
vn -1.000000 0.000000 0.000000
vn 0.000000 -0.596567 0.802563
vn 0.000000 -0.596567 0.802563
vn 0.000000 -0.596567 0.802563
vn 0.000000 -0.596567 0.802563
vn 1.000000 0.000000 0.000000
vn 1.000000 0.000000 0.000000
vn 1.000000 0.000000 0.000000
vn 1.000000 0.000000 0.000000
s 1
g Light_Switch
usemtl initialShadingGroup
f 1/1/1 31/49/2 55/75/3 23/41/4
s 2
f 3/3/5 29/47/6 51/71/7 19/36/8
s 3
f 5/5/9 27/45/10 47/67/11 15/28/12
s 4
f 7/7/13 25/43/14 43/63/15 11/20/16
s 5
f 2/2/17 10/18/18 39/59/19 21/39/20
s 6
f 7/13/21 11/19/22 35/55/23 16/29/24
f 19/35/25 34/54/26 24/42/27 3/3/28
f 23/41/29 33/53/30 12/21/31 1/1/32
f 24/42/27 34/54/26 33/53/30 23/41/29
f 20/37/33 36/56/34 34/54/26 19/35/25
f 33/53/30 35/55/23 11/19/22 12/21/31
f 34/54/26 36/56/34 35/55/23 33/53/30
f 15/27/35 36/56/34 20/37/33 5/14/36
f 16/29/24 35/55/23 36/56/34 15/27/35
s 5
f 18/34/37 38/58/38 13/24/39 6/12/40
f 14/26/41 37/57/42 9/16/43 8/11/44
f 13/24/39 38/58/38 37/57/42 14/26/41
f 17/32/45 40/60/46 38/58/38 18/34/37
f 37/57/42 39/59/19 10/18/18 9/16/43
f 38/58/38 40/60/46 39/59/19 37/57/42
f 22/40/47 40/60/46 17/32/45 4/4/48
f 21/39/20 39/59/19 40/60/46 22/40/47
s 4
f 32/52/49 42/62/50 10/17/51 2/10/52
f 9/15/53 41/61/54 26/44/55 8/8/56
f 10/17/51 42/62/50 41/61/54 9/15/53
f 31/50/57 44/64/58 42/62/50 32/52/49
f 41/61/54 43/63/15 25/43/14 26/44/55
f 42/62/50 44/64/58 43/63/15 41/61/54
f 12/22/59 44/64/58 31/50/57 1/9/60
f 11/20/16 43/63/15 44/64/58 12/22/59
s 3
f 26/44/61 46/66/62 14/25/63 8/8/64
f 13/23/65 45/65/66 28/46/67 6/6/68
f 14/25/63 46/66/62 45/65/66 13/23/65
f 25/43/69 48/68/70 46/66/62 26/44/61
f 45/65/66 47/67/11 27/45/10 28/46/67
f 46/66/62 48/68/70 47/67/11 45/65/66
f 16/30/71 48/68/70 25/43/69 7/7/72
f 15/28/12 47/67/11 48/68/70 16/30/71
s 2
f 28/46/73 50/70/74 18/33/75 6/6/76
f 17/31/77 49/69/78 30/48/79 4/4/80
f 18/33/75 50/70/74 49/69/78 17/31/77
f 27/45/81 52/72/82 50/70/74 28/46/73
f 49/69/78 51/71/7 29/47/6 30/48/79
f 50/70/74 52/72/82 51/71/7 49/69/78
f 20/38/83 52/72/82 27/45/81 5/5/84
f 19/36/8 51/71/7 52/72/82 20/38/83
s 1
f 30/48/85 54/74/86 22/40/87 4/4/88
f 21/39/89 53/73/90 32/51/91 2/2/92
f 22/40/87 54/74/86 53/73/90 21/39/89
f 29/47/93 56/76/94 54/74/86 30/48/85
f 53/73/90 55/75/3 31/49/2 32/51/91
s off
f 58/77/95 57/78/96 59/79/97 60/80/98
s 1
f 24/42/99 56/76/94 29/47/93 3/3/100
f 23/41/4 55/75/3 56/76/94 24/42/99
s off
f 54/74/101 56/76/102 57/78/103 58/77/104
f 56/76/105 55/75/106 59/79/107 57/78/108
f 55/75/109 53/73/110 60/80/111 59/79/112
f 53/73/113 54/74/114 58/77/115 60/80/116
