# This file uses centimeters as units for non-parametric coordinates.

mtllib Photo_Enlarger.mtl
g default
v -25.000000 -1.363515 25.000000
v 25.000000 -1.363515 25.000000
v -25.000000 1.363515 25.000000
v 25.000000 1.363515 25.000000
v -25.000000 1.363515 -25.000000
v 25.000000 1.363515 -25.000000
v -25.000000 -1.363515 -25.000000
v 25.000000 -1.363515 -25.000000
v 2.000000 1.291089 -24.796062
v -2.000000 1.291089 -24.796062
v 2.000000 7.454575 -23.585505
v -2.000000 7.454575 -23.585505
v 2.000000 7.454575 -19.585505
v -2.000000 7.454575 -19.585505
v 2.000000 1.291089 -19.585505
v -2.000000 1.291089 -19.585505
v 0.988217 7.454576 -22.573721
v -0.988217 7.454576 -22.573721
v -0.988217 7.454576 -20.597288
v 0.988217 7.454576 -20.597288
v 0.988217 65.612938 -22.573721
v -0.988217 65.612938 -22.573721
v -0.988217 65.612938 -20.597288
v 0.988217 65.612938 -20.597288
vt 0.375000 0.000000
vt 0.625000 0.000000
vt 0.375000 0.250000
vt 0.625000 0.250000
vt 0.375000 0.500000
vt 0.625000 0.500000
vt 0.375000 0.750000
vt 0.625000 0.750000
vt 0.375000 1.000000
vt 0.625000 1.000000
vt 0.875000 0.000000
vt 0.875000 0.250000
vt 0.125000 0.000000
vt 0.125000 0.250000
vt 0.375000 0.000000
vt 0.625000 0.000000
vt 0.625000 0.250000
vt 0.375000 0.250000
vt 0.375000 0.250000
vt 0.625000 0.250000
vt 0.625000 0.500000
vt 0.375000 0.500000
vt 0.375000 0.500000
vt 0.625000 0.500000
vt 0.625000 0.750000
vt 0.375000 0.750000
vt 0.625000 1.000000
vt 0.375000 1.000000
vt 0.875000 0.000000
vt 0.875000 0.250000
vt 0.125000 0.000000
vt 0.125000 0.250000
vt 0.625000 0.250000
vt 0.375000 0.250000
vt 0.625000 0.500000
vt 0.375000 0.500000
vn 0.000000 0.000000 1.000000
vn 0.000000 0.000000 1.000000
vn 0.000000 0.000000 1.000000
vn 0.000000 0.000000 1.000000
vn 0.000000 1.000000 0.000000
vn 0.000000 1.000000 0.000000
vn 0.000000 1.000000 0.000000
vn 0.000000 1.000000 0.000000
vn 0.000000 0.000000 -1.000000
vn 0.000000 0.000000 -1.000000
vn 0.000000 0.000000 -1.000000
vn 0.000000 0.000000 -1.000000
vn 0.000000 -1.000000 0.000000
vn 0.000000 -1.000000 0.000000
vn 0.000000 -1.000000 0.000000
vn 0.000000 -1.000000 0.000000
vn 1.000000 0.000000 0.000000
vn 1.000000 0.000000 0.000000
vn 1.000000 0.000000 0.000000
vn 1.000000 0.000000 0.000000
vn -1.000000 0.000000 0.000000
vn -1.000000 0.000000 0.000000
vn -1.000000 0.000000 0.000000
vn -1.000000 0.000000 0.000000
vn 0.000000 0.192726 -0.981253
vn 0.000000 0.192726 -0.981253
vn 0.000000 0.192726 -0.981253
vn 0.000000 0.192726 -0.981253
vn 0.000000 1.000000 0.000000
vn 0.000000 1.000000 0.000000
vn 0.000000 1.000000 0.000000
vn 0.000000 1.000000 0.000000
vn 0.000000 0.000000 1.000000
vn 0.000000 0.000000 1.000000
vn 0.000000 0.000000 1.000000
vn 0.000000 0.000000 1.000000
vn 0.000000 -1.000000 0.000000
vn 0.000000 -1.000000 0.000000
vn 0.000000 -1.000000 0.000000
vn 0.000000 -1.000000 0.000000
vn -1.000000 0.000000 0.000000
vn -1.000000 0.000000 0.000000
vn -1.000000 0.000000 0.000000
vn -1.000000 0.000000 0.000000
vn 1.000000 0.000000 0.000000
vn 1.000000 0.000000 0.000000
vn 1.000000 0.000000 0.000000
vn 1.000000 0.000000 0.000000
vn 0.000000 1.000000 -0.000001
vn 0.000000 1.000000 -0.000001
vn 0.000000 1.000000 -0.000001
vn 0.000000 1.000000 -0.000001
vn -0.000001 1.000000 0.000000
vn -0.000001 1.000000 0.000000
vn -0.000001 1.000000 0.000000
vn -0.000001 1.000000 0.000000
vn 0.000000 1.000000 0.000001
vn 0.000000 1.000000 0.000001
vn 0.000000 1.000000 0.000001
vn 0.000000 1.000000 0.000001
vn 0.000001 1.000000 0.000000
vn 0.000001 1.000000 0.000000
vn 0.000001 1.000000 0.000000
vn 0.000001 1.000000 0.000000
vn 0.000000 0.000000 -1.000000
vn 0.000000 0.000000 -1.000000
vn 0.000000 0.000000 -1.000000
vn 0.000000 0.000000 -1.000000
vn -1.000000 0.000000 0.000000
vn -1.000000 0.000000 0.000000
vn -1.000000 0.000000 0.000000
vn -1.000000 0.000000 0.000000
vn 0.000000 0.000000 1.000000
vn 0.000000 0.000000 1.000000
vn 0.000000 0.000000 1.000000
vn 0.000000 0.000000 1.000000
vn 1.000000 0.000000 0.000000
vn 1.000000 0.000000 0.000000
vn 1.000000 0.000000 0.000000
vn 1.000000 0.000000 0.000000
s off
g pCube17 Photo_Enlarger
usemtl initialShadingGroup
f 1/1/1 2/2/2 4/4/3 3/3/4
f 3/3/5 4/4/6 6/6/7 5/5/8
f 5/5/9 6/6/10 8/8/11 7/7/12
f 7/7/13 8/8/14 2/10/15 1/9/16
f 2/2/17 8/11/18 6/12/19 4/4/20
f 7/13/21 1/1/22 3/3/23 5/14/24
f 9/15/25 10/16/26 12/17/27 11/18/28
f 21/19/29 22/20/30 23/21/31 24/22/32
f 13/23/33 14/24/34 16/25/35 15/26/36
f 15/26/37 16/25/38 10/27/39 9/28/40
f 10/16/41 16/29/42 14/30/43 12/17/44
f 15/31/45 9/15/46 11/18/47 13/32/48
f 11/18/49 12/17/50 18/33/51 17/34/52
f 12/17/53 14/24/54 19/35/55 18/33/56
f 14/24/57 13/23/58 20/36/59 19/35/60
f 13/23/61 11/18/62 17/34/63 20/36/64
f 17/34/65 18/33/66 22/20/67 21/19/68
f 18/33/69 19/35/70 23/21/71 22/20/72
f 19/35/73 20/36/74 24/22/75 23/21/76
f 20/36/77 17/34/78 21/19/79 24/22/80
g default
v -5.675880 48.091218 -4.910975
v 5.675880 48.091218 -4.910975
v -5.675880 51.234509 -4.910975
v 5.675880 51.234509 -4.910975
v -5.675880 51.234509 -24.349663
v 5.675880 51.234509 -24.349663
v -5.675880 48.091218 -24.349663
v 5.675880 48.091218 -24.349663
v -4.987023 48.091218 -14.965243
v 5.093524 48.091218 -14.965243
v 5.093524 48.091218 -5.533271
v -4.987023 48.091218 -5.533271
v -4.987023 44.656926 -14.965243
v 5.093524 44.656926 -14.965243
v 5.093524 44.656926 -5.533271
v -4.987023 44.656926 -5.533271
v -6.331062 44.656926 -15.509623
v 6.331062 44.656926 -15.509623
v 6.331062 44.656926 -4.988892
v -6.331062 44.656926 -4.988892
v -5.136738 43.516678 -14.517281
v 5.136738 43.516678 -14.517281
v 5.136738 43.516678 -5.981235
v -5.136738 43.516678 -5.981235
v 0.683479 42.627667 -11.325116
v -0.023628 42.627667 -11.618010
v -0.730735 42.627667 -11.325116
v -1.023628 42.627667 -10.618010
v -0.730735 42.627667 -9.910903
v -0.023628 42.627667 -9.618010
v 0.683479 42.627667 -9.910903
v 0.976372 42.627667 -10.618010
v 0.683479 44.627667 -11.325116
v -0.023628 44.627667 -11.618010
v -0.730735 44.627667 -11.325116
v -1.023628 44.627667 -10.618010
v -0.730735 44.627667 -9.910903
v -0.023628 44.627667 -9.618010
v 0.683479 44.627667 -9.910903
v 0.976372 44.627667 -10.618010
v -0.023628 42.627667 -10.618010
v -0.023628 44.627667 -10.618010
v 7.003245 51.620347 -22.234127
v 7.003245 49.887868 -22.951742
v 7.003245 48.155388 -22.234127
v 7.003245 47.437775 -20.501650
v 7.003245 48.155388 -18.769173
v 7.003245 49.887868 -18.051558
v 7.003245 51.620347 -18.769173
v 7.003245 52.337960 -20.501650
v 5.694028 51.620347 -22.234127
v 5.694028 49.887868 -22.951742
v 5.694028 48.155388 -22.234127
v 5.694028 47.437775 -20.501650
v 5.694028 48.155388 -18.769173
v 5.694028 49.887868 -18.051558
v 5.694028 51.620347 -18.769173
v 5.694028 52.337960 -20.501650
v 7.003245 49.887868 -20.501650
v 5.694028 49.887868 -20.501650
v 6.760608 49.135964 -16.747894
v 6.760608 48.045647 -17.199518
v 6.760608 46.955330 -16.747894
v 6.760608 46.503705 -15.657576
v 6.760608 46.955330 -14.567258
v 6.760608 48.045647 -14.115633
v 6.760608 49.135964 -14.567258
v 6.760608 49.587590 -15.657576
v 5.936665 49.135964 -16.747894
v 5.936665 48.045647 -17.199518
v 5.936665 46.955330 -16.747894
v 5.936665 46.503705 -15.657576
v 5.936665 46.955330 -14.567258
v 5.936665 48.045647 -14.115633
v 5.936665 49.135964 -14.567258
v 5.936665 49.587590 -15.657576
v 6.760608 48.045647 -15.657576
v 5.936665 48.045647 -15.657576
v -6.455527 51.337933 -5.338222
v 6.455527 51.337933 -5.338222
v -6.455527 64.248990 -5.338222
v 6.455527 64.248990 -5.338222
v -6.455527 64.248990 -20.577015
v 6.455527 64.248990 -20.577015
v -6.455527 51.337933 -20.577015
v 6.455527 51.337933 -20.577015
vt 0.375000 0.000000
vt 0.625000 0.000000
vt 0.375000 0.250000
vt 0.625000 0.250000
vt 0.375000 0.500000
vt 0.625000 0.500000
vt 0.375000 0.750000
vt 0.625000 0.750000
vt 0.375000 1.000000
vt 0.625000 1.000000
vt 0.875000 0.000000
vt 0.875000 0.250000
vt 0.125000 0.000000
vt 0.125000 0.250000
vt 0.375000 0.750000
vt 0.625000 0.750000
vt 0.625000 1.000000
vt 0.375000 1.000000
vt 0.375000 0.750000
vt 0.625000 0.750000
vt 0.625000 1.000000
vt 0.375000 1.000000
vt 0.375000 0.750000
vt 0.625000 0.750000
vt 0.625000 1.000000
vt 0.375000 1.000000
vt 0.375000 0.750000
vt 0.625000 0.750000
vt 0.625000 1.000000
vt 0.375000 1.000000
vt 0.375000 0.312500
vt 0.406250 0.312500
vt 0.406250 0.688440
vt 0.375000 0.688440
vt 0.437500 0.312500
vt 0.437500 0.688440
vt 0.468750 0.312500
vt 0.468750 0.688440
vt 0.500000 0.312500
vt 0.500000 0.688440
vt 0.531250 0.312500
vt 0.531250 0.688440
vt 0.562500 0.312500
vt 0.562500 0.688440
vt 0.593750 0.312500
vt 0.593750 0.688440
vt 0.625000 0.312500
vt 0.625000 0.688440
vt 0.500000 0.000000
vt 0.610485 0.045765
vt 0.500000 0.150000
vt 0.389515 0.045765
vt 0.343750 0.156250
vt 0.389515 0.266735
vt 0.500000 0.312500
vt 0.610485 0.266735
vt 0.656250 0.156250
vt 0.610485 0.954235
vt 0.500000 1.000000
vt 0.500000 0.837500
vt 0.389515 0.954235
vt 0.343750 0.843750
vt 0.389515 0.733265
vt 0.500000 0.687500
vt 0.610485 0.733265
vt 0.656250 0.843750
vt 0.375000 0.312500
vt 0.406250 0.312500
vt 0.406250 0.688440
vt 0.375000 0.688440
vt 0.437500 0.312500
vt 0.437500 0.688440
vt 0.468750 0.312500
vt 0.468750 0.688440
vt 0.500000 0.312500
vt 0.500000 0.688440
vt 0.531250 0.312500
vt 0.531250 0.688440
vt 0.562500 0.312500
vt 0.562500 0.688440
vt 0.593750 0.312500
vt 0.593750 0.688440
vt 0.625000 0.312500
vt 0.625000 0.688440
vt 0.500000 0.000000
vt 0.610485 0.045765
vt 0.500000 0.150000
vt 0.389515 0.045765
vt 0.343750 0.156250
vt 0.389515 0.266735
vt 0.500000 0.312500
vt 0.610485 0.266735
vt 0.656250 0.156250
vt 0.610485 0.954235
vt 0.500000 1.000000
vt 0.500000 0.837500
vt 0.389515 0.954235
vt 0.343750 0.843750
vt 0.389515 0.733265
vt 0.500000 0.687500
vt 0.610485 0.733265
vt 0.656250 0.843750
vt 0.375000 0.312500
vt 0.406250 0.312500
vt 0.406250 0.688440
vt 0.375000 0.688440
vt 0.437500 0.312500
vt 0.437500 0.688440
vt 0.468750 0.312500
vt 0.468750 0.688440
vt 0.500000 0.312500
vt 0.500000 0.688440
vt 0.531250 0.312500
vt 0.531250 0.688440
vt 0.562500 0.312500
vt 0.562500 0.688440
vt 0.593750 0.312500
vt 0.593750 0.688440
vt 0.625000 0.312500
vt 0.625000 0.688440
vt 0.500000 0.000000
vt 0.610485 0.045765
vt 0.500000 0.150000
vt 0.389515 0.045765
vt 0.343750 0.156250
vt 0.389515 0.266735
vt 0.500000 0.312500
vt 0.610485 0.266735
vt 0.656250 0.156250
vt 0.610485 0.954235
vt 0.500000 1.000000
vt 0.500000 0.837500
vt 0.389515 0.954235
vt 0.343750 0.843750
vt 0.389515 0.733265
vt 0.500000 0.687500
vt 0.610485 0.733265
vt 0.656250 0.843750
vt 0.375000 0.000000
vt 0.625000 0.000000
vt 0.625000 0.250000
vt 0.375000 0.250000
vt 0.625000 0.500000
vt 0.375000 0.500000
vt 0.625000 0.750000
vt 0.375000 0.750000
vt 0.625000 1.000000
vt 0.375000 1.000000
vt 0.875000 0.000000
vt 0.875000 0.250000
vt 0.125000 0.000000
vt 0.125000 0.250000
vn 0.000000 0.000000 1.000000
vn 0.000000 0.000000 1.000000
vn 0.000000 0.000000 1.000000
vn 0.000000 0.000000 1.000000
vn 0.000000 1.000000 0.000000
vn 0.000000 1.000000 0.000000
vn 0.000000 1.000000 0.000000
vn 0.000000 1.000000 0.000000
vn 0.000000 0.000000 -1.000000
vn 0.000000 0.000000 -1.000000
vn 0.000000 0.000000 -1.000000
vn 0.000000 0.000000 -1.000000
vn 0.000000 -1.000000 0.000000
vn 0.000000 -1.000000 0.000000
vn 0.000000 -1.000000 0.000000
vn 0.000000 -1.000000 0.000000
vn 1.000000 0.000000 0.000000
vn 1.000000 0.000000 0.000000
vn 1.000000 0.000000 0.000000
vn 1.000000 0.000000 0.000000
vn -1.000000 0.000000 0.000000
vn -1.000000 0.000000 0.000000
vn -1.000000 0.000000 0.000000
vn -1.000000 0.000000 0.000000
vn 0.000000 -1.000000 0.000000
vn 0.000000 -1.000000 0.000000
vn 0.000000 -1.000000 0.000000
vn 0.000000 -1.000000 0.000000
vn 0.000000 -1.000000 0.000000
vn 0.000000 -1.000000 0.000000
vn 0.000000 -1.000000 0.000000
vn 0.000000 -1.000000 0.000000
vn 0.000000 -1.000000 -0.000002
vn 0.000000 -1.000000 -0.000002
vn 0.000000 -1.000000 -0.000002
vn 0.000000 -1.000000 -0.000002
vn 0.000000 -1.000000 0.000000
vn 0.000000 -1.000000 0.000000
vn 0.000000 -1.000000 0.000000
vn 0.000000 -1.000000 0.000000
vn 0.000000 0.000000 -1.000000
vn 0.000000 0.000000 -1.000000
vn 0.000000 0.000000 -1.000000
vn 0.000000 0.000000 -1.000000
vn 1.000000 0.000000 0.000000
vn 1.000000 0.000000 0.000000
vn 1.000000 0.000000 0.000000
vn 1.000000 0.000000 0.000000
vn 0.000000 0.000000 1.000000
vn 0.000000 0.000000 1.000000
vn 0.000000 0.000000 1.000000
vn 0.000000 0.000000 1.000000
vn -1.000000 0.000000 0.000000
vn -1.000000 0.000000 0.000000
vn -1.000000 0.000000 0.000000
vn -1.000000 0.000000 0.000000
vn 0.000000 1.000000 -0.000002
vn 0.000000 1.000000 -0.000002
vn 0.000000 1.000000 -0.000002
vn 0.000000 1.000000 -0.000002
vn 0.000000 1.000000 0.000000
vn 0.000000 1.000000 0.000000
vn 0.000000 1.000000 0.000000
vn 0.000000 1.000000 0.000000
vn 0.000000 1.000000 0.000002
vn 0.000000 1.000000 0.000002
vn 0.000000 1.000000 0.000002
vn 0.000000 1.000000 0.000002
vn 0.000000 1.000000 0.000000
vn 0.000000 1.000000 0.000000
vn 0.000000 1.000000 0.000000
vn 0.000000 1.000000 0.000000
vn 0.000000 -0.656489 -0.754336
vn 0.000000 -0.656489 -0.754336
vn 0.000000 -0.656489 -0.754336
vn 0.000000 -0.656489 -0.754336
vn 0.690543 -0.723292 0.000000
vn 0.690543 -0.723292 0.000000
vn 0.690542 -0.723292 0.000000
vn 0.690542 -0.723292 0.000000
vn 0.000000 -0.656489 0.754335
vn 0.000000 -0.656489 0.754335
vn 0.000000 -0.656489 0.754335
vn 0.000000 -0.656489 0.754335
vn -0.690543 -0.723292 0.000000
vn -0.690543 -0.723292 0.000000
vn -0.690543 -0.723292 0.000000
vn -0.690542 -0.723292 0.000000
vn 0.382683 0.000000 -0.923880
vn 0.382683 0.000000 -0.923880
vn 0.382683 0.000000 -0.923880
vn 0.382683 0.000000 -0.923880
vn -0.382683 0.000000 -0.923880
vn -0.382683 0.000000 -0.923880
vn -0.382683 0.000000 -0.923880
vn -0.382683 0.000000 -0.923880
vn -0.923879 0.000000 -0.382684
vn -0.923879 0.000000 -0.382684
vn -0.923879 0.000000 -0.382684
vn -0.923879 0.000000 -0.382684
vn -0.923879 0.000000 0.382684
vn -0.923879 0.000000 0.382684
vn -0.923879 0.000000 0.382684
vn -0.923879 0.000000 0.382684
vn -0.382683 0.000000 0.923880
vn -0.382683 0.000000 0.923880
vn -0.382683 0.000000 0.923880
vn -0.382683 0.000000 0.923880
vn 0.382684 0.000000 0.923879
vn 0.382684 0.000000 0.923879
vn 0.382684 0.000000 0.923879
vn 0.382684 0.000000 0.923879
vn 0.923880 0.000000 0.382683
vn 0.923880 0.000000 0.382683
vn 0.923880 0.000000 0.382683
vn 0.923880 0.000000 0.382683
vn 0.923879 0.000000 -0.382684
vn 0.923879 0.000000 -0.382684
vn 0.923879 0.000000 -0.382684
vn 0.923879 0.000000 -0.382684
vn 0.000000 -1.000000 0.000000
vn 0.000000 -1.000000 0.000000
vn 0.000000 -1.000000 0.000001
vn 0.000000 -1.000000 0.000005
vn 0.000000 -1.000000 0.000003
vn 0.000000 -1.000000 -0.000003
vn 0.000000 -1.000000 0.000000
vn 0.000000 -1.000000 0.000000
vn 0.000000 -1.000000 0.000000
vn 0.000000 1.000000 0.000000
vn 0.000000 1.000000 0.000000
vn 0.000000 1.000000 0.000000
vn 0.000000 1.000000 0.000000
vn 0.000000 1.000000 0.000000
vn 0.000000 1.000000 0.000000
vn 0.000000 1.000000 0.000000
vn 0.000000 1.000000 0.000000
vn 0.000000 1.000000 0.000000
vn 0.000000 0.382683 -0.923880
vn 0.000000 0.382683 -0.923880
vn 0.000000 0.382683 -0.923880
vn 0.000000 0.382683 -0.923880
vn 0.000000 -0.382683 -0.923880
vn 0.000000 -0.382683 -0.923880
vn 0.000000 -0.382683 -0.923880
vn 0.000000 -0.382683 -0.923880
vn 0.000000 -0.923880 -0.382682
vn 0.000000 -0.923880 -0.382682
vn 0.000000 -0.923880 -0.382682
vn 0.000000 -0.923880 -0.382682
vn 0.000000 -0.923880 0.382682
vn 0.000000 -0.923880 0.382682
vn 0.000000 -0.923880 0.382682
vn 0.000000 -0.923880 0.382682
vn 0.000000 -0.382683 0.923880
vn 0.000000 -0.382683 0.923880
vn 0.000000 -0.382683 0.923880
vn 0.000000 -0.382683 0.923880
vn 0.000000 0.382683 0.923880
vn 0.000000 0.382683 0.923880
vn 0.000000 0.382683 0.923880
vn 0.000000 0.382683 0.923880
vn 0.000000 0.923880 0.382683
vn 0.000000 0.923880 0.382683
vn 0.000000 0.923880 0.382683
vn 0.000000 0.923880 0.382683
vn 0.000000 0.923880 -0.382683
vn 0.000000 0.923880 -0.382683
vn 0.000000 0.923880 -0.382683
vn 0.000000 0.923880 -0.382683
vn 1.000000 0.000000 0.000000
vn 1.000000 0.000000 0.000000
vn 1.000000 0.000000 0.000000
vn 1.000000 0.000000 0.000000
vn 1.000000 0.000000 0.000000
vn 1.000000 0.000000 0.000000
vn 1.000000 0.000000 0.000000
vn 1.000000 0.000000 0.000000
vn 1.000000 0.000000 0.000000
vn -1.000000 0.000000 0.000000
vn -1.000000 0.000000 0.000000
vn -1.000000 0.000000 0.000000
vn -1.000000 0.000000 0.000000
vn -1.000000 0.000000 0.000000
vn -1.000000 0.000000 0.000000
vn -1.000000 0.000000 0.000000
vn -1.000000 0.000000 0.000000
vn -1.000000 0.000000 0.000000
vn 0.000000 0.382683 -0.923880
vn 0.000000 0.382683 -0.923880
vn 0.000000 0.382683 -0.923880
vn 0.000000 0.382683 -0.923880
vn 0.000000 -0.382684 -0.923879
vn 0.000000 -0.382684 -0.923879
vn 0.000000 -0.382684 -0.923879
vn 0.000000 -0.382684 -0.923879
vn 0.000000 -0.923878 -0.382686
vn 0.000000 -0.923878 -0.382686
vn 0.000000 -0.923878 -0.382686
vn 0.000000 -0.923878 -0.382686
vn 0.000000 -0.923878 0.382686
vn 0.000000 -0.923878 0.382686
vn 0.000000 -0.923878 0.382686
vn 0.000000 -0.923878 0.382686
vn 0.000000 -0.382685 0.923879
vn 0.000000 -0.382685 0.923879
vn 0.000000 -0.382685 0.923879
vn 0.000000 -0.382685 0.923879
vn 0.000000 0.382683 0.923880
vn 0.000000 0.382683 0.923880
vn 0.000000 0.382683 0.923880
vn 0.000000 0.382683 0.923880
vn 0.000000 0.923880 0.382683
vn 0.000000 0.923880 0.382683
vn 0.000000 0.923880 0.382683
vn 0.000000 0.923880 0.382683
vn 0.000000 0.923880 -0.382683
vn 0.000000 0.923880 -0.382683
vn 0.000000 0.923880 -0.382683
vn 0.000000 0.923880 -0.382683
vn 1.000000 -0.000000 0.000000
vn 1.000000 0.000000 0.000000
vn 1.000000 -0.000000 0.000000
vn 1.000000 -0.000000 0.000000
vn 1.000000 0.000000 0.000000
vn 1.000000 0.000000 0.000000
vn 1.000000 0.000000 0.000000
vn 1.000000 0.000000 0.000000
vn 1.000000 0.000000 0.000000
vn -1.000000 0.000000 0.000000
vn -1.000000 -0.000000 0.000000
vn -1.000000 0.000000 0.000000
vn -1.000000 -0.000001 0.000000
vn -1.000000 0.000000 0.000000
vn -1.000000 -0.000000 0.000000
vn -1.000000 0.000000 0.000000
vn -1.000000 0.000001 0.000000
vn -1.000000 0.000000 0.000000
vn 0.000000 0.000000 1.000000
vn 0.000000 0.000000 1.000000
vn 0.000000 0.000000 1.000000
vn 0.000000 0.000000 1.000000
vn 0.000000 1.000000 0.000000
vn 0.000000 1.000000 0.000000
vn 0.000000 1.000000 0.000000
vn 0.000000 1.000000 0.000000
vn 0.000000 0.000000 -1.000000
vn 0.000000 0.000000 -1.000000
vn 0.000000 0.000000 -1.000000
vn 0.000000 0.000000 -1.000000
vn 0.000000 -1.000000 0.000000
vn 0.000000 -1.000000 0.000000
vn 0.000000 -1.000000 0.000000
vn 0.000000 -1.000000 0.000000
vn 1.000000 0.000000 0.000000
vn 1.000000 0.000000 0.000000
vn 1.000000 0.000000 0.000000
vn 1.000000 0.000000 0.000000
vn -1.000000 0.000000 0.000000
vn -1.000000 0.000000 0.000000
vn -1.000000 0.000000 0.000000
vn -1.000000 0.000000 0.000000
s off
g Photo_Enlarger pCube16
usemtl initialShadingGroup
f 25/37/81 26/38/82 28/40/83 27/39/84
f 27/39/85 28/40/86 30/42/87 29/41/88
f 29/41/89 30/42/90 32/44/91 31/43/92
f 45/63/93 46/64/94 47/65/95 48/66/96
f 26/38/97 32/47/98 30/48/99 28/40/100
f 31/49/101 25/37/102 27/39/103 29/50/104
f 31/43/105 32/44/106 34/52/107 33/51/108
f 32/44/109 26/46/110 35/53/111 34/52/112
f 26/46/113 25/45/114 36/54/115 35/53/116
f 25/45/117 31/43/118 33/51/119 36/54/120
f 33/51/121 34/52/122 38/56/123 37/55/124
f 34/52/125 35/53/126 39/57/127 38/56/128
f 35/53/129 36/54/130 40/58/131 39/57/132
f 36/54/133 33/51/134 37/55/135 40/58/136
f 37/55/137 38/56/138 42/60/139 41/59/140
f 38/56/141 39/57/142 43/61/143 42/60/144
f 39/57/145 40/58/146 44/62/147 43/61/148
f 40/58/149 37/55/150 41/59/151 44/62/152
f 41/59/153 42/60/154 46/64/155 45/63/156
f 42/60/157 43/61/158 47/65/159 46/64/160
f 43/61/161 44/62/162 48/66/163 47/65/164
f 44/62/165 41/59/166 45/63/167 48/66/168
f 49/67/169 50/68/170 58/69/171 57/70/172
f 50/68/173 51/71/174 59/72/175 58/69/176
f 51/71/177 52/73/178 60/74/179 59/72/180
f 52/73/181 53/75/182 61/76/183 60/74/184
f 53/75/185 54/77/186 62/78/187 61/76/188
f 54/77/189 55/79/190 63/80/191 62/78/192
f 55/79/193 56/81/194 64/82/195 63/80/196
f 56/81/197 49/83/198 57/84/199 64/82/200
s 1
f 50/85/201 49/86/202 65/87/203
f 51/88/204 50/85/201 65/87/203
f 52/89/205 51/88/204 65/87/203
f 53/90/206 52/89/205 65/87/203
f 54/91/207 53/90/206 65/87/203
f 55/92/208 54/91/207 65/87/203
f 56/93/209 55/92/208 65/87/203
f 49/86/202 56/93/209 65/87/203
s 2
f 57/94/210 58/95/211 66/96/212
f 58/95/211 59/97/213 66/96/212
f 59/97/213 60/98/214 66/96/212
f 60/98/214 61/99/215 66/96/212
f 61/99/215 62/100/216 66/96/212
f 62/100/216 63/101/217 66/96/212
f 63/101/217 64/102/218 66/96/212
f 64/102/218 57/94/210 66/96/212
s off
f 67/103/219 68/104/220 76/105/221 75/106/222
f 68/104/223 69/107/224 77/108/225 76/105/226
f 69/107/227 70/109/228 78/110/229 77/108/230
f 70/109/231 71/111/232 79/112/233 78/110/234
f 71/111/235 72/113/236 80/114/237 79/112/238
f 72/113/239 73/115/240 81/116/241 80/114/242
f 73/115/243 74/117/244 82/118/245 81/116/246
f 74/117/247 67/119/248 75/120/249 82/118/250
s 3
f 68/121/251 67/122/252 83/123/253
f 69/124/254 68/121/251 83/123/253
f 70/125/255 69/124/254 83/123/253
f 71/126/256 70/125/255 83/123/253
f 72/127/257 71/126/256 83/123/253
f 73/128/258 72/127/257 83/123/253
f 74/129/259 73/128/258 83/123/253
f 67/122/252 74/129/259 83/123/253
s 4
f 75/130/260 76/131/261 84/132/262
f 76/131/261 77/133/263 84/132/262
f 77/133/263 78/134/264 84/132/262
f 78/134/264 79/135/265 84/132/262
f 79/135/265 80/136/266 84/132/262
f 80/136/266 81/137/267 84/132/262
f 81/137/267 82/138/268 84/132/262
f 82/138/268 75/130/260 84/132/262
s off
f 85/139/269 86/140/270 94/141/271 93/142/272
f 86/140/273 87/143/274 95/144/275 94/141/276
f 87/143/277 88/145/278 96/146/279 95/144/280
f 88/145/281 89/147/282 97/148/283 96/146/284
f 89/147/285 90/149/286 98/150/287 97/148/288
f 90/149/289 91/151/290 99/152/291 98/150/292
f 91/151/293 92/153/294 100/154/295 99/152/296
f 92/153/297 85/155/298 93/156/299 100/154/300
s 5
f 86/157/301 85/158/302 101/159/303
f 87/160/304 86/157/301 101/159/303
f 88/161/305 87/160/304 101/159/303
f 89/162/306 88/161/305 101/159/303
f 90/163/307 89/162/306 101/159/303
f 91/164/308 90/163/307 101/159/303
f 92/165/309 91/164/308 101/159/303
f 85/158/302 92/165/309 101/159/303
s 6
f 93/166/310 94/167/311 102/168/312
f 94/167/311 95/169/313 102/168/312
f 95/169/313 96/170/314 102/168/312
f 96/170/314 97/171/315 102/168/312
f 97/171/315 98/172/316 102/168/312
f 98/172/316 99/173/317 102/168/312
f 99/173/317 100/174/318 102/168/312
f 100/174/318 93/166/310 102/168/312
s off
f 103/175/319 104/176/320 106/177/321 105/178/322
f 105/178/323 106/177/324 108/179/325 107/180/326
f 107/180/327 108/179/328 110/181/329 109/182/330
f 109/182/331 110/181/332 104/183/333 103/184/334
f 104/176/335 110/185/336 108/186/337 106/177/338
f 109/187/339 103/175/340 105/178/341 107/188/342
