# This file uses centimeters as units for non-parametric coordinates.

mtllib Wooden_Clip.mtl
g default
v -15.079393 50.195362 -0.500000
v -14.294467 50.912273 -0.500000
v -14.294467 50.912273 0.500000
v -15.079393 50.195362 0.500000
v -15.140399 51.771538 0.500000
v -15.140399 51.771538 -0.500000
v -14.294467 51.148499 -0.500000
v -14.294467 51.148499 0.500000
v -14.870567 51.771538 0.500000
v -14.870567 51.771538 -0.500000
v -14.306088 51.148499 -0.500000
v -14.557806 51.331383 -0.500000
v -14.557806 51.331383 0.500000
v -14.306088 51.148499 0.500000
v -14.653953 51.627293 -0.500000
v -14.653953 51.627293 0.500000
v -14.870567 52.249313 0.500000
v -14.870567 52.249313 -0.500000
v -14.557806 51.923203 -0.500000
v -14.557806 51.923203 0.500000
v -15.158891 52.249313 0.500000
v -15.158891 52.249313 -0.500000
v -14.306089 52.106087 -0.500000
v -14.306089 52.106087 0.500000
v -14.294467 52.106087 -0.500000
v -14.294467 52.106087 0.500000
v -14.294467 53.398045 -0.500000
v -14.294467 53.398045 0.500000
v -15.294467 55.752163 0.500000
v -15.294467 55.752163 -0.500000
v -13.515600 50.195362 0.500000
v -14.300527 50.912273 0.500000
v -14.300527 50.912273 -0.500000
v -13.515600 50.195362 -0.500000
v -13.454595 51.771538 -0.500000
v -13.454595 51.771538 0.500000
v -14.300527 51.148499 0.500000
v -14.300527 51.148499 -0.500000
v -13.724426 51.771538 -0.500000
v -13.724426 51.771538 0.500000
v -14.288905 51.148499 0.500000
v -14.037188 51.331383 0.500000
v -14.037188 51.331383 -0.500000
v -14.288905 51.148499 -0.500000
v -13.941041 51.627293 0.500000
v -13.941041 51.627293 -0.500000
v -13.724426 52.249313 -0.500000
v -13.724426 52.249313 0.500000
v -14.037188 51.923203 0.500000
v -14.037188 51.923203 -0.500000
v -13.436103 52.249313 -0.500000
v -13.436103 52.249313 0.500000
v -14.288904 52.106087 0.500000
v -14.288904 52.106087 -0.500000
v -14.300527 52.106087 0.500000
v -14.300527 52.106087 -0.500000
v -14.300527 53.398045 0.500000
v -14.300527 53.398045 -0.500000
v -13.300527 55.752163 -0.500000
v -13.300527 55.752163 0.500000
vt 0.375000 0.750000
vt 0.625000 0.750000
vt 0.625000 1.000000
vt 0.375000 1.000000
vt 0.125000 0.000000
vt 0.375000 0.000000
vt 0.375000 0.070912
vt 0.125000 0.070912
vt 0.625000 0.000000
vt 0.875000 0.000000
vt 0.875000 0.023758
vt 0.625000 0.023758
vt 0.557542 0.750000
vt 0.557542 1.000000
vt 0.625000 1.000000
vt 0.625000 0.750000
vt 0.525000 0.313782
vt 0.500000 0.313782
vt 0.500000 0.687158
vt 0.525000 0.687158
vt 0.525934 0.687158
vt 0.525934 0.313782
vt 0.475000 0.313782
vt 0.475000 0.687158
vt 0.625000 0.000000
vt 0.625000 0.250000
vt 0.875000 0.250000
vt 0.875000 0.000000
vt 0.450000 0.313782
vt 0.450000 0.687158
vt 0.552919 0.250000
vt 0.552919 0.500000
vt 0.625000 0.500000
vt 0.425000 0.313782
vt 0.425000 0.687158
vt 0.424066 0.313782
vt 0.424066 0.687158
vt 0.875000 0.120065
vt 0.875000 0.250000
vt 0.625000 0.250000
vt 0.625000 0.120065
vt 0.375000 0.092407
vt 0.375000 0.250000
vt 0.125000 0.250000
vt 0.125000 0.092407
vt 0.625000 0.500000
vt 0.375000 0.500000
vt 0.625000 0.629935
vt 0.621622 0.630422
vt 0.547663 0.655496
vt 0.517823 0.680181
vt 0.545400 0.704162
vt 0.621475 0.726023
vt 0.625000 0.726242
vt 0.375000 0.679088
vt 0.454618 0.673539
vt 0.458409 0.643673
vt 0.375000 0.657593
vt 0.621475 0.023977
vt 0.545400 0.045838
vt 0.517823 0.069819
vt 0.547663 0.094504
vt 0.621622 0.119578
vt 0.458409 0.106327
vt 0.454618 0.076461
vt 0.375000 0.750000
vt 0.625000 0.750000
vt 0.625000 1.000000
vt 0.375000 1.000000
vt 0.125000 0.000000
vt 0.375000 0.000000
vt 0.375000 0.070912
vt 0.125000 0.070912
vt 0.625000 0.000000
vt 0.875000 0.000000
vt 0.875000 0.023758
vt 0.625000 0.023758
vt 0.557542 0.750000
vt 0.557542 1.000000
vt 0.625000 1.000000
vt 0.625000 0.750000
vt 0.525000 0.313782
vt 0.500000 0.313782
vt 0.500000 0.687158
vt 0.525000 0.687158
vt 0.525934 0.687158
vt 0.525934 0.313782
vt 0.475000 0.313782
vt 0.475000 0.687158
vt 0.625000 0.000000
vt 0.625000 0.250000
vt 0.875000 0.250000
vt 0.875000 0.000000
vt 0.450000 0.313782
vt 0.450000 0.687158
vt 0.552919 0.250000
vt 0.552919 0.500000
vt 0.625000 0.500000
vt 0.425000 0.313782
vt 0.425000 0.687158
vt 0.424066 0.313782
vt 0.424066 0.687158
vt 0.875000 0.120065
vt 0.875000 0.250000
vt 0.625000 0.250000
vt 0.625000 0.120065
vt 0.375000 0.092407
vt 0.375000 0.250000
vt 0.125000 0.250000
vt 0.125000 0.092407
vt 0.625000 0.500000
vt 0.375000 0.500000
vt 0.625000 0.629935
vt 0.621622 0.630422
vt 0.547663 0.655496
vt 0.517823 0.680181
vt 0.545400 0.704162
vt 0.621475 0.726023
vt 0.625000 0.726242
vt 0.375000 0.679088
vt 0.454618 0.673539
vt 0.458409 0.643673
vt 0.375000 0.657593
vt 0.621475 0.023977
vt 0.545400 0.045838
vt 0.517823 0.069819
vt 0.547663 0.094504
vt 0.621622 0.119578
vt 0.458409 0.106327
vt 0.454618 0.076461
vn 0.674392 -0.738373 0.000000
vn 0.674392 -0.738373 0.000000
vn 0.674392 -0.738373 0.000000
vn 0.674392 -0.738373 0.000000
vn -0.999252 -0.038676 0.000000
vn -0.999252 -0.038676 0.000000
vn -0.999252 -0.038676 0.000000
vn -0.999252 -0.038676 0.000000
vn 1.000000 0.000000 0.000000
vn 1.000000 0.000000 0.000000
vn 1.000000 0.000000 0.000000
vn 1.000000 0.000000 0.000000
vn 0.000000 1.000000 0.000000
vn 0.000000 1.000000 0.000000
vn 0.000000 1.000000 0.000000
vn 0.000000 1.000000 0.000000
vn 0.587787 0.809016 0.000000
vn 0.587787 0.809016 0.000000
vn 0.587787 0.809016 0.000000
vn 0.587787 0.809016 0.000000
vn 0.000000 1.000000 0.000000
vn 0.000000 1.000000 0.000000
vn 0.000000 1.000000 0.000000
vn 0.000000 1.000000 0.000000
vn 0.951057 0.309016 0.000000
vn 0.951057 0.309016 0.000000
vn 0.951057 0.309016 0.000000
vn 0.951057 0.309016 0.000000
vn -1.000000 0.000000 0.000000
vn -1.000000 0.000000 0.000000
vn -1.000000 0.000000 0.000000
vn -1.000000 0.000000 0.000000
vn 0.951057 -0.309016 0.000000
vn 0.951057 -0.309016 0.000000
vn 0.951057 -0.309016 0.000000
vn 0.951057 -0.309016 0.000000
vn 0.000000 -1.000000 0.000000
vn 0.000000 -1.000000 0.000000
vn 0.000000 -1.000000 0.000000
vn 0.000000 -1.000000 0.000000
vn 0.587788 -0.809015 0.000000
vn 0.587788 -0.809015 0.000000
vn 0.587788 -0.809015 0.000000
vn 0.587788 -0.809015 0.000000
vn 0.000000 -1.000000 0.000000
vn 0.000000 -1.000000 0.000000
vn 0.000000 -1.000000 0.000000
vn 0.000000 -1.000000 0.000000
vn 1.000000 0.000000 0.000000
vn 1.000000 0.000000 0.000000
vn 1.000000 0.000000 0.000000
vn 1.000000 0.000000 0.000000
vn -0.999252 -0.038676 0.000000
vn -0.999252 -0.038676 0.000000
vn -0.999252 -0.038676 0.000000
vn -0.999252 -0.038676 0.000000
vn 0.920401 0.390975 0.000000
vn 0.920401 0.390975 0.000000
vn 0.920401 0.390975 0.000000
vn 0.920401 0.390975 0.000000
vn 0.000000 0.000000 -1.000000
vn 0.000000 0.000000 -1.000000
vn 0.000000 0.000000 -1.000000
vn 0.000000 0.000000 -1.000000
vn 0.000000 0.000000 -1.000000
vn 0.000000 0.000000 -1.000000
vn 0.000000 0.000000 -1.000000
vn 0.000000 0.000000 -1.000000
vn 0.000000 0.000000 -1.000000
vn 0.000000 0.000000 -1.000000
vn 0.000000 0.000000 -1.000000
vn 0.000000 0.000000 -1.000000
vn 0.000000 0.000000 -1.000000
vn 0.000000 0.000000 -1.000000
vn 0.000000 0.000000 -1.000000
vn 0.000000 0.000000 1.000000
vn 0.000000 0.000000 1.000000
vn 0.000000 0.000000 1.000000
vn 0.000000 0.000000 1.000000
vn 0.000000 0.000000 1.000000
vn 0.000000 0.000000 1.000000
vn 0.000000 0.000000 1.000000
vn 0.000000 0.000000 1.000000
vn 0.000000 0.000000 1.000000
vn 0.000000 0.000000 1.000000
vn 0.000000 0.000000 1.000000
vn 0.000000 0.000000 1.000000
vn 0.000000 0.000000 1.000000
vn 0.000000 0.000000 1.000000
vn 0.000000 0.000000 1.000000
vn -0.674392 -0.738373 0.000000
vn -0.674392 -0.738373 0.000000
vn -0.674392 -0.738373 0.000000
vn -0.674392 -0.738373 0.000000
vn 0.999252 -0.038676 0.000000
vn 0.999252 -0.038676 0.000000
vn 0.999252 -0.038676 0.000000
vn 0.999252 -0.038676 0.000000
vn -1.000000 0.000000 0.000000
vn -1.000000 0.000000 0.000000
vn -1.000000 0.000000 0.000000
vn -1.000000 0.000000 0.000000
vn 0.000000 1.000000 0.000000
vn 0.000000 1.000000 0.000000
vn 0.000000 1.000000 0.000000
vn 0.000000 1.000000 0.000000
vn -0.587787 0.809016 0.000000
vn -0.587787 0.809016 0.000000
vn -0.587787 0.809016 0.000000
vn -0.587787 0.809016 0.000000
vn 0.000000 1.000000 0.000000
vn 0.000000 1.000000 0.000000
vn 0.000000 1.000000 0.000000
vn 0.000000 1.000000 0.000000
vn -0.951057 0.309016 0.000000
vn -0.951057 0.309016 0.000000
vn -0.951057 0.309016 0.000000
vn -0.951057 0.309016 0.000000
vn 1.000000 0.000000 0.000000
vn 1.000000 0.000000 0.000000
vn 1.000000 0.000000 0.000000
vn 1.000000 0.000000 0.000000
vn -0.951057 -0.309016 0.000000
vn -0.951057 -0.309016 0.000000
vn -0.951057 -0.309016 0.000000
vn -0.951057 -0.309016 0.000000
vn 0.000000 -1.000000 0.000000
vn 0.000000 -1.000000 0.000000
vn 0.000000 -1.000000 0.000000
vn 0.000000 -1.000000 0.000000
vn -0.587788 -0.809015 0.000000
vn -0.587788 -0.809015 0.000000
vn -0.587788 -0.809015 0.000000
vn -0.587788 -0.809015 0.000000
vn 0.000000 -1.000000 0.000000
vn 0.000000 -1.000000 0.000000
vn 0.000000 -1.000000 0.000000
vn 0.000000 -1.000000 0.000000
vn -1.000000 0.000000 0.000000
vn -1.000000 0.000000 0.000000
vn -1.000000 0.000000 0.000000
vn -1.000000 0.000000 0.000000
vn 0.999252 -0.038676 0.000000
vn 0.999252 -0.038676 0.000000
vn 0.999252 -0.038676 0.000000
vn 0.999252 -0.038676 0.000000
vn -0.920401 0.390975 0.000000
vn -0.920401 0.390975 0.000000
vn -0.920401 0.390975 0.000000
vn -0.920401 0.390975 0.000000
vn 0.000000 0.000000 1.000000
vn 0.000000 0.000000 1.000000
vn 0.000000 0.000000 1.000000
vn 0.000000 0.000000 1.000000
vn 0.000000 0.000000 1.000000
vn 0.000000 0.000000 1.000000
vn 0.000000 0.000000 1.000000
vn 0.000000 0.000000 1.000000
vn 0.000000 0.000000 1.000000
vn 0.000000 0.000000 1.000000
vn 0.000000 0.000000 1.000000
vn 0.000000 0.000000 1.000000
vn 0.000000 0.000000 1.000000
vn 0.000000 0.000000 1.000000
vn 0.000000 0.000000 1.000000
vn 0.000000 0.000000 -1.000000
vn 0.000000 0.000000 -1.000000
vn 0.000000 0.000000 -1.000000
vn 0.000000 0.000000 -1.000000
vn 0.000000 0.000000 -1.000000
vn 0.000000 0.000000 -1.000000
vn 0.000000 0.000000 -1.000000
vn 0.000000 0.000000 -1.000000
vn 0.000000 0.000000 -1.000000
vn 0.000000 0.000000 -1.000000
vn 0.000000 0.000000 -1.000000
vn 0.000000 0.000000 -1.000000
vn 0.000000 0.000000 -1.000000
vn 0.000000 0.000000 -1.000000
vn 0.000000 0.000000 -1.000000
s off
g Wooden_Clip
usemtl initialShadingGroup
f 1/1/1 2/2/2 3/3/3 4/4/4
f 1/5/5 4/6/6 5/7/7 6/8/8
f 3/9/9 2/10/10 7/11/11 8/12/12
f 6/13/13 5/14/14 9/15/15 10/16/16
f 11/17/17 12/18/18 13/19/19 14/20/20
f 14/20/21 8/21/22 7/22/23 11/17/24
f 12/18/25 15/23/26 16/24/27 13/19/28
f 9/25/29 17/26/30 18/27/31 10/28/32
f 15/23/33 19/29/34 20/30/35 16/24/36
f 21/31/37 22/32/38 18/33/39 17/26/40
f 19/29/41 23/34/42 24/35/43 20/30/44
f 23/34/45 25/36/46 26/37/47 24/35/48
f 25/38/49 27/39/50 28/40/51 26/41/52
f 21/42/53 29/43/54 30/44/55 22/45/56
f 29/43/57 28/40/58 27/46/59 30/47/60
f 30/47/61 27/46/62 25/48/63 23/49/64 19/50/65 15/51/66 12/52/67 11/53/68 7/54/69 2/2/70 1/1/71 6/55/72 10/56/73 18/57/74 22/58/75
f 4/6/76 3/9/77 8/12/78 14/59/79 13/60/80 16/61/81 20/62/82 24/63/83 26/41/84 28/40/85 29/43/86 21/42/87 17/64/88 9/65/89 5/7/90
f 31/66/91 32/67/92 33/68/93 34/69/94
f 31/70/95 34/71/96 35/72/97 36/73/98
f 33/74/99 32/75/100 37/76/101 38/77/102
f 36/78/103 35/79/104 39/80/105 40/81/106
f 41/82/107 42/83/108 43/84/109 44/85/110
f 44/85/111 38/86/112 37/87/113 41/82/114
f 42/83/115 45/88/116 46/89/117 43/84/118
f 39/90/119 47/91/120 48/92/121 40/93/122
f 45/88/123 49/94/124 50/95/125 46/89/126
f 51/96/127 52/97/128 48/98/129 47/91/130
f 49/94/131 53/99/132 54/100/133 50/95/134
f 53/99/135 55/101/136 56/102/137 54/100/138
f 55/103/139 57/104/140 58/105/141 56/106/142
f 51/107/143 59/108/144 60/109/145 52/110/146
f 59/108/147 58/105/148 57/111/149 60/112/150
f 60/112/151 57/111/152 55/113/153 53/114/154 49/115/155 45/116/156 42/117/157 41/118/158 37/119/159 32/67/160 31/66/161 36/120/162 40/121/163 48/122/164 52/123/165
f 34/71/166 33/74/167 38/77/168 44/124/169 43/125/170 46/126/171 50/127/172 54/128/173 56/106/174 58/105/175 59/108/176 51/107/177 47/129/178 39/130/179 35/72/180
